<?xml version="1.0" standalone="no"?>
<!DOCTYPE svg PUBLIC "-//W3C//DTD SVG 20010904//EN"
 "http://www.w3.org/TR/2001/REC-SVG-20010904/DTD/svg10.dtd">
<svg version="1.0" xmlns="http://www.w3.org/2000/svg"
 width="306.000000pt" height="306.000000pt" viewBox="0 0 306.000000 306.000000"
 preserveAspectRatio="xMidYMid meet">
<metadata>
Created by potrace 1.14, written by Peter Selinger 2001-2017
</metadata>
<g transform="translate(0.000000,306.000000) scale(0.100000,-0.100000)"
fill="#000000" stroke="none">
<path d="M1483 2190 c-3 -11 -10 -20 -16 -20 -6 0 -8 -3 -4 -6 3 -3 -7 -27
-22 -52 -26 -47 -101 -204 -121 -257 -6 -15 -12 -26 -15 -24 -2 2 -36 33 -76
69 -41 36 -84 75 -96 87 -13 12 -23 19 -23 15 0 -3 -16 11 -35 31 -19 20 -38
37 -42 37 -3 0 -15 7 -25 17 -10 9 -19 12 -19 7 -11 -78 -22 -235 -23 -336 -1
-100 -5 -116 -28 -102 -7 5 -24 10 -38 12 -13 2 -27 6 -30 10 -3 4 -9 8 -15 8
-15 3 -277 84 -303 94 -20 9 -22 7 -18 -16 3 -14 9 -31 15 -37 5 -7 9 -14 9
-17 -1 -8 12 -53 22 -75 30 -69 70 -168 72 -183 2 -9 9 -23 16 -30 7 -8 10
-17 7 -22 -3 -5 -2 -10 2 -12 7 -3 55 -94 58 -108 3 -17 104 -176 139 -217 31
-38 106 -108 141 -133 54 -37 146 -83 153 -76 3 3 12 0 20 -6 18 -16 172 -20
237 -6 59 12 111 11 136 -2 12 -7 20 -6 24 0 4 7 11 7 18 2 25 -20 198 -3 267
25 8 4 17 7 20 8 19 4 82 43 116 70 80 66 141 133 186 208 18 29 35 54 39 57
3 3 10 16 14 30 4 14 11 27 15 30 8 5 71 136 75 155 1 5 7 21 12 35 13 29 37
93 39 100 0 3 4 13 7 23 15 39 20 53 23 62 1 6 9 27 18 48 9 20 13 37 10 37
-4 0 -2 6 3 13 8 11 9 20 4 43 0 4 -7 2 -14 -4 -12 -10 -54 -22 -84 -24 -7 -1
-13 -4 -13 -8 0 -4 -6 -7 -12 -8 -21 -1 -48 -9 -148 -42 -52 -18 -99 -33 -105
-34 -5 -1 -16 -5 -23 -10 -18 -11 -27 0 -28 37 -5 144 -19 393 -23 405 -1 4
-47 -29 -86 -63 -67 -57 -129 -111 -150 -130 -12 -11 -36 -33 -53 -49 l-31
-29 -10 24 c-17 47 -172 359 -178 359 -3 0 -7 -9 -10 -20z m87 -350 c26 -58
48 -109 50 -115 1 -5 4 -14 6 -20 19 -58 44 -145 48 -165 2 -14 7 -32 11 -41
6 -16 0 -25 -41 -60 -40 -34 -103 -107 -97 -113 4 -3 2 -6 -4 -6 -6 0 -18 -16
-28 -36 l-17 -36 -38 59 c-22 32 -66 85 -99 116 -46 44 -59 62 -55 80 2 12 7
38 10 57 3 19 10 39 15 45 5 5 9 15 9 23 0 7 19 62 42 120 23 59 41 110 40
115 -1 4 2 7 7 7 5 0 12 10 16 23 9 29 8 26 30 70 l19 38 15 -28 c8 -15 36
-75 61 -133z m-436 20 c16 -14 53 -49 82 -78 46 -45 53 -56 44 -73 -6 -10 -8
-19 -4 -19 3 0 2 -6 -4 -12 -5 -7 -13 -33 -18 -58 -9 -52 -9 -50 -18 -71 -7
-15 -12 -14 -54 9 -26 14 -49 30 -50 34 -2 4 -7 6 -11 3 -5 -2 -16 1 -26 8
-15 11 -17 29 -16 118 2 88 4 140 10 183 1 9 12 1 65 -44z m791 -104 c-1 -80
-3 -147 -5 -149 -3 -2 -25 -13 -50 -25 -25 -12 -53 -28 -62 -34 -19 -14 -37
-3 -42 23 -1 8 -13 48 -26 89 -16 52 -19 75 -11 78 6 2 9 8 5 13 -3 5 -1 9 5
9 5 0 25 15 44 33 67 62 97 87 103 85 3 -2 10 5 15 15 6 9 13 15 17 13 4 -2 7
-70 7 -150z m375 -141 c-5 -14 -16 -39 -25 -55 -8 -16 -16 -33 -16 -37 -4 -29
-109 -246 -121 -251 -4 -2 -8 -9 -8 -16 0 -17 -87 -135 -131 -176 -59 -57 -81
-74 -134 -102 -49 -26 -69 -32 -145 -44 -19 -3 -41 -7 -47 -9 -7 -2 -13 1 -13
8 0 8 -3 8 -8 2 -9 -13 -32 -13 -32 0 1 6 20 31 43 56 23 26 48 57 55 69 34
56 51 90 46 90 -2 0 1 10 8 23 14 27 17 42 23 135 2 40 7 77 10 82 3 5 1 11
-4 15 -21 12 3 34 87 76 48 24 89 46 92 49 3 3 10 6 15 7 6 2 55 19 110 38 55
19 109 36 120 38 11 2 27 7 35 10 8 3 22 8 30 10 8 3 16 6 17 6 1 1 -2 -10 -7
-24z m-1540 1 c8 -3 16 -5 18 -5 1 -1 3 -1 5 0 12 3 206 -74 295 -118 90 -44
112 -59 113 -76 5 -134 7 -162 9 -162 1 0 5 -17 13 -62 10 -58 68 -153 146
-242 11 -13 21 -25 21 -26 0 0 -25 0 -56 2 -67 3 -145 24 -212 58 -52 26 -202
167 -202 190 0 3 -8 14 -18 25 -22 24 -132 236 -132 255 0 8 -4 15 -10 15 -6
0 -9 3 -8 8 1 8 -3 18 -39 101 l-23 53 33 -6 c17 -3 39 -8 47 -10z m616 -359
c13 -15 65 -152 63 -165 -1 -4 0 -9 1 -12 6 -15 6 -61 -1 -66 -5 -2 -16 8 -26
23 -10 15 -28 38 -40 52 -13 13 -23 28 -23 33 0 6 -9 23 -21 39 -11 16 -18 29
-15 29 3 0 2 10 -3 23 -5 13 -12 40 -15 60 -3 20 -6 40 -7 44 -7 41 20 22 87
-60z m318 26 c-8 -38 -16 -72 -17 -78 -13 -41 -20 -55 -28 -55 -6 0 -8 -4 -5
-8 3 -5 -9 -29 -27 -53 -56 -77 -79 -92 -72 -47 2 9 6 35 9 57 9 70 48 149 99
203 9 10 14 18 10 18 -8 0 29 29 38 30 4 0 0 -30 -7 -67z"/>
</g>
</svg>
